<svg xmlns="http://www.w3.org/2000/svg" style="display: none;">
    <!-- LinkedIn SVG -->
    <symbol id="linkedin" viewBox="0 0 448 512">
        <path fill="currentcolor" d="M416 32H31.9C14.3 32 0 46.5 0 64.3v383.4C0 465.5 14.3 480 31.9 480H416c17.6 0 32-14.5 32-32.3V64.3c0-17.8-14.4-32.3-32-32.3zM135.4 416H69V202.2h66.5V416zm-33.2-243c-21.3 0-38.5-17.3-38.5-38.5S80.9 96 102.2 96c21.2 0 38.5 17.3 38.5 38.5 0 21.3-17.2 38.5-38.5 38.5zm282.1 243h-66.4V312c0-24.8-.5-56.7-34.5-56.7-34.6 0-39.9 27-39.9 54.9V416h-66.4V202.2h63.7v29.2h.9c8.9-16.8 30.6-34.5 62.9-34.5 67.2 0 79.7 44.3 79.7 101.9V416z"></path>
    </symbol>

    <!-- Stack Overflow SVG -->
    <symbol id="stackoverflow" viewBox="0 0 384 512">
        <path fill="currentcolor" d="M293.7 300l-181.2-84.5 16.7-36.5 181.3 84.7-16.8 36.3zm48-76L188.2 95.7l-25.5 30.8 153.5 128.3 25.5-30.8zm39.6-31.7L262 32l-32 24 119.3 160.3 32-24zM290.7 311L95 269.7 86.8 309l195.7 41 8.2-39zm31.6 129H42.7V320h-40v160h359.5V320h-40v120zm-39.8-80h-200v39.7h200V360z"></path>
    </symbol>

    <!-- Twitter SVG -->
    <symbol id="twitter" viewBox="0 0 16 16">
        <path fill="currentcolor" d="M15.969,3.058c-0.586,0.26-1.217,0.436-1.878,0.515c0.675-0.405,1.194-1.045,1.438-1.809c-0.632,0.375-1.332,0.647-2.076,0.793c-0.596-0.636-1.446-1.033-2.387-1.033c-1.806,0-3.27,1.464-3.27,3.27 c0,0.256,0.029,0.506,0.085,0.745C5.163,5.404,2.753,4.102,1.14,2.124C0.859,2.607,0.698,3.168,0.698,3.767 c0,1.134,0.577,2.135,1.455,2.722C1.616,6.472,1.112,6.325,0.671,6.08c0,0.014,0,0.027,0,0.041c0,1.584,1.127,2.906,2.623,3.206 C3.02,9.402,2.731,9.442,2.433,9.442c-0.211,0-0.416-0.021-0.615-0.059c0.416,1.299,1.624,2.245,3.055,2.271 c-1.119,0.877-2.529,1.4-4.061,1.4c-0.264,0-0.524-0.015-0.78-0.046c1.447,0.928,3.166,1.469,5.013,1.469 c6.015,0,9.304-4.983,9.304-9.304c0-0.142-0.003-0.283-0.009-0.423C14.976,4.29,15.531,3.714,15.969,3.058z"/>
    </symbol>

    <!-- Github SVG -->
    <symbol id="github" viewBox="0 0 448 512">
        <path fill="currentcolor" d="M400 32H48C21.5 32 0 53.5 0 80v352c0 26.5 21.5 48 48 48h352c26.5 0 48-21.5 48-48V80c0-26.5-21.5-48-48-48zM277.3 415.7c-8.4 1.5-11.5-3.7-11.5-8 0-5.4.2-33 .2-55.3 0-15.6-5.2-25.5-11.3-30.7 37-4.1 76-9.2 76-73.1 0-18.2-6.5-27.3-17.1-39 1.7-4.3 7.4-22-1.7-45-13.9-4.3-45.7 17.9-45.7 17.9-13.2-3.7-27.5-5.6-41.6-5.6-14.1 0-28.4 1.9-41.6 5.6 0 0-31.8-22.2-45.7-17.9-9.1 22.9-3.5 40.6-1.7 45-10.6 11.7-15.6 20.8-15.6 39 0 63.6 37.3 69 74.3 73.1-4.8 4.3-9.1 11.7-10.6 22.3-9.5 4.3-33.8 11.7-48.3-13.9-9.1-15.8-25.5-17.1-25.5-17.1-16.2-.2-1.1 10.2-1.1 10.2 10.8 5 18.4 24.2 18.4 24.2 9.7 29.7 56.1 19.7 56.1 19.7 0 13.9.2 36.5.2 40.6 0 4.3-3 9.5-11.5 8-66-22.1-112.2-84.9-112.2-158.3 0-91.8 70.2-161.5 162-161.5S388 165.6 388 257.4c.1 73.4-44.7 136.3-110.7 158.3zm-98.1-61.1c-1.9.4-3.7-.4-3.9-1.7-.2-1.5 1.1-2.8 3-3.2 1.9-.2 3.7.6 3.9 1.9.3 1.3-1 2.6-3 3zm-9.5-.9c0 1.3-1.5 2.4-3.5 2.4-2.2.2-3.7-.9-3.7-2.4 0-1.3 1.5-2.4 3.5-2.4 1.9-.2 3.7.9 3.7 2.4zm-13.7-1.1c-.4 1.3-2.4 1.9-4.1 1.3-1.9-.4-3.2-1.9-2.8-3.2.4-1.3 2.4-1.9 4.1-1.5 2 .6 3.3 2.1 2.8 3.4zm-12.3-5.4c-.9 1.1-2.8.9-4.3-.6-1.5-1.3-1.9-3.2-.9-4.1.9-1.1 2.8-.9 4.3.6 1.3 1.3 1.8 3.3.9 4.1zm-9.1-9.1c-.9.6-2.6 0-3.7-1.5s-1.1-3.2 0-3.9c1.1-.9 2.8-.2 3.7 1.3 1.1 1.5 1.1 3.3 0 4.1zm-6.5-9.7c-.9.9-2.4.4-3.5-.6-1.1-1.3-1.3-2.8-.4-3.5.9-.9 2.4-.4 3.5.6 1.1 1.3 1.3 2.8.4 3.5zm-6.7-7.4c-.4.9-1.7 1.1-2.8.4-1.3-.6-1.9-1.7-1.5-2.6.4-.6 1.5-.9 2.8-.4 1.3.7 1.9 1.8 1.5 2.6z">
    </symbol>

    <!-- photography SVG -->
    <symbol id="photography" viewBox="0 0 512 512">
        <path fill="currentcolor" d="M220.6 121.2L271.1 96 448 96v96H333.2c-21.9-15.1-48.5-24-77.2-24s-55.2 8.9-77.2 24H64V128H192c9.9 0 19.7-2.3 28.6-6.8zM0 128V416c0 35.3 28.7 64 64 64H448c35.3 0 64-28.7 64-64V96c0-35.3-28.7-64-64-64H271.1c-9.9 0-19.7 2.3-28.6 6.8L192 64H160V48c0-8.8-7.2-16-16-16H80c-8.8 0-16 7.2-16 16l0 16C28.7 64 0 92.7 0 128zM168 304a88 88 0 1 1 176 0 88 88 0 1 1 -176 0z"/>
    </symbol>

    <!-- album SVG -->
    <symbol id="album" viewBox="0 0 576 512">
        <path fill="currentcolor" d="M160 32c-35.3 0-64 28.7-64 64V320c0 35.3 28.7 64 64 64H512c35.3 0 64-28.7 64-64V96c0-35.3-28.7-64-64-64H160zM396 138.7l96 144c4.9 7.4 5.4 16.8 1.2 24.6S480.9 320 472 320H328 280 200c-9.2 0-17.6-5.3-21.6-13.6s-2.9-18.2 2.9-25.4l64-80c4.6-5.7 11.4-9 18.7-9s14.2 3.3 18.7 9l17.3 21.6 56-84C360.5 132 368 128 376 128s15.5 4 20 10.7zM192 128a32 32 0 1 1 64 0 32 32 0 1 1 -64 0zM48 120c0-13.3-10.7-24-24-24S0 106.7 0 120V344c0 75.1 60.9 136 136 136H456c13.3 0 24-10.7 24-24s-10.7-24-24-24H136c-48.6 0-88-39.4-88-88V120z"/>
    </symbol>

    <!-- code SVG -->
    <symbol id="code" viewBox="0 0 640 512">
        <path fill="currentcolor" d="M392.8 1.2c-17-4.9-34.7 5-39.6 22l-128 448c-4.9 17 5 34.7 22 39.6s34.7-5 39.6-22l128-448c4.9-17-5-34.7-22-39.6zm80.6 120.1c-12.5 12.5-12.5 32.8 0 45.3L562.7 256l-89.4 89.4c-12.5 12.5-12.5 32.8 0 45.3s32.8 12.5 45.3 0l112-112c12.5-12.5 12.5-32.8 0-45.3l-112-112c-12.5-12.5-32.8-12.5-45.3 0zm-306.7 0c-12.5-12.5-32.8-12.5-45.3 0l-112 112c-12.5 12.5-12.5 32.8 0 45.3l112 112c12.5 12.5 32.8 12.5 45.3 0s12.5-32.8 0-45.3L77.3 256l89.4-89.4c12.5-12.5 12.5-32.8 0-45.3z"/>
    </symbol>


    <!-- games SVG -->
    <symbol id="games" viewBox="0 0 640 512">
        <path fill="currentcolor" d="M192 64C86 64 0 150 0 256S86 448 192 448H448c106 0 192-86 192-192s-86-192-192-192H192zM496 168a40 40 0 1 1 0 80 40 40 0 1 1 0-80zM392 304a40 40 0 1 1 80 0 40 40 0 1 1 -80 0zM168 200c0-13.3 10.7-24 24-24s24 10.7 24 24v32h32c13.3 0 24 10.7 24 24s-10.7 24-24 24H216v32c0 13.3-10.7 24-24 24s-24-10.7-24-24V280H136c-13.3 0-24-10.7-24-24s10.7-24 24-24h32V200z"/>
    </symbol>

    <!-- unreal SVG -->
    <symbol id="unreal" viewBox="0 0 24 24">
        <path fill="currentcolor" d="m12 0c-6.627 0-12 5.373-12 12s5.373 12 12 12 12-5.373 12-12c0-6.627-5.373-12-12-12zm0 1.846c5.595.007 10.128 4.545 10.128 10.141 0 5.601-4.54 10.141-10.141 10.141s-10.141-4.54-10.141-10.141c0-2.8 1.135-5.335 2.97-7.17 1.837-1.835 4.374-2.97 7.176-2.97h.007zm0 2.77c-4.392.774-8.308 4.824-8.308 9.23 2.149-3.794 3.584-4.067 3.981-4.067s.606.206.606.663v5.654c0 .703-1.366.588-1.818.519 1.67 2.485 5.539 2.77 5.539 2.77l1.846-1.846 1.846.923c2.914-1.334 4.615-4.19 4.615-4.615-.701.868-1.646 1.515-2.731 1.836l-.039.01c-.245 0-.923-.126-.923-.462v-6.693c0-.581 1.342-2.354 1.846-3-3.332.873-4.298 2.394-4.298 2.394s-.253-.548-1.24-.548c.501.473.838 1.114.922 1.832l.001.014v5.654c-.525.373-1.144.653-1.813.801l-.034.006c-.64 0-.952-.26-.952-.75s.029-6.634.029-6.634-.923.339-.923-1.558c0-.949 1.846-2.135 1.846-2.135z"/>
    </symbol>

    <!-- art SVG -->
    <symbol id="art"  viewBox="0 0 512 512">
        <path fill="currentcolor" d="M512 256c0 .9 0 1.8 0 2.7c-.4 36.5-33.6 61.3-70.1 61.3H344c-26.5 0-48 21.5-48 48c0 3.4 .4 6.7 1 9.9c2.1 10.2 6.5 20 10.8 29.9c6.1 13.8 12.1 27.5 12.1 42c0 31.8-21.6 60.7-53.4 62c-3.5 .1-7 .2-10.6 .2C114.6 512 0 397.4 0 256S114.6 0 256 0S512 114.6 512 256zM128 288a32 32 0 1 0 -64 0 32 32 0 1 0 64 0zm0-96a32 32 0 1 0 0-64 32 32 0 1 0 0 64zM288 96a32 32 0 1 0 -64 0 32 32 0 1 0 64 0zm96 96a32 32 0 1 0 0-64 32 32 0 1 0 0 64z"/>
    </symbol>

    <!-- google SVG -->
    <symbol id="google"  viewBox="0 0 488 512">
        <path fill="currentcolor" d="M488 261.8C488 403.3 391.1 504 248 504 110.8 504 0 393.2 0 256S110.8 8 248 8c66.8 0 123 24.5 166.3 64.9l-67.5 64.9C258.5 52.6 94.3 116.6 94.3 256c0 86.5 69.1 156.6 153.7 156.6 98.2 0 135-70.4 140.8-106.9H248v-85.3h236.1c2.3 12.7 3.9 24.9 3.9 41.4z"/>
    </symbol>

    <!-- think SVG -->
    <symbol id="think"  viewBox="0 0 384 512">
       <path fill="currentcolor" d="M272 384c9.6-31.9 29.5-59.1 49.2-86.2l0 0c5.2-7.1 10.4-14.2 15.4-21.4c19.8-28.5 31.4-63 31.4-100.3C368 78.8 289.2 0 192 0S16 78.8 16 176c0 37.3 11.6 71.9 31.4 100.3c5 7.2 10.2 14.3 15.4 21.4l0 0c19.8 27.1 39.7 54.4 49.2 86.2H272zM192 512c44.2 0 80-35.8 80-80V416H112v16c0 44.2 35.8 80 80 80zM112 176c0 8.8-7.2 16-16 16s-16-7.2-16-16c0-61.9 50.1-112 112-112c8.8 0 16 7.2 16 16s-7.2 16-16 16c-44.2 0-80 35.8-80 80z"/>
    </symbol>

    <!-- story SVG -->
    <symbol id="story" viewBox="0 0 576 512">
       <path fill="currentcolor" d="M249.6 471.5c10.8 3.8 22.4-4.1 22.4-15.5V78.6c0-4.2-1.6-8.4-5-11C247.4 52 202.4 32 144 32C93.5 32 46.3 45.3 18.1 56.1C6.8 60.5 0 71.7 0 83.8V454.1c0 11.9 12.8 20.2 24.1 16.5C55.6 460.1 105.5 448 144 448c33.9 0 79 14 105.6 23.5zm76.8 0C353 462 398.1 448 432 448c38.5 0 88.4 12.1 119.9 22.6c11.3 3.8 24.1-4.6 24.1-16.5V83.8c0-12.1-6.8-23.3-18.1-27.6C529.7 45.3 482.5 32 432 32c-58.4 0-103.4 20-123 35.6c-3.3 2.6-5 6.8-5 11V456c0 11.4 11.7 19.3 22.4 15.5z"/>
    </symbol>

    <!-- playstation SVG -->
    <symbol id="playstation" viewBox="0 0 576 512">
       <path fill="currentcolor" d="M570.9 372.3c-11.3 14.2-38.8 24.3-38.8 24.3L327 470.2v-54.3l150.9-53.8c17.1-6.1 19.8-14.8 5.8-19.4-13.9-4.6-39.1-3.3-56.2 2.9L327 381.1v-56.4c23.2-7.8 47.1-13.6 75.7-16.8 40.9-4.5 90.9.6 130.2 15.5 44.2 14 49.2 34.7 38 48.9zm-224.4-92.5v-139c0-16.3-3-31.3-18.3-35.6-11.7-3.8-19 7.1-19 23.4v347.9l-93.8-29.8V32c39.9 7.4 98 24.9 129.2 35.4C424.1 94.7 451 128.7 451 205.2c0 74.5-46 102.8-104.5 74.6zM43.2 410.2c-45.4-12.8-53-39.5-32.3-54.8 19.1-14.2 51.7-24.9 51.7-24.9l134.5-47.8v54.5l-96.8 34.6c-17.1 6.1-19.7 14.8-5.8 19.4 13.9 4.6 39.1 3.3 56.2-2.9l46.4-16.9v48.8c-51.6 9.3-101.4 7.3-153.9-10z"/>
    </symbol>

    <!-- sun SVG -->
    <symbol id="sun" viewBox="0 0 512 512">
       <path fill="currentcolor" d="M361.5 1.2c5 2.1 8.6 6.6 9.6 11.9L391 121l107.9 19.8c5.3 1 9.8 4.6 11.9 9.6s1.5 10.7-1.6 15.2L446.9 256l62.3 90.3c3.1 4.5 3.7 10.2 1.6 15.2s-6.6 8.6-11.9 9.6L391 391 371.1 498.9c-1 5.3-4.6 9.8-9.6 11.9s-10.7 1.5-15.2-1.6L256 446.9l-90.3 62.3c-4.5 3.1-10.2 3.7-15.2 1.6s-8.6-6.6-9.6-11.9L121 391 13.1 371.1c-5.3-1-9.8-4.6-11.9-9.6s-1.5-10.7 1.6-15.2L65.1 256 2.8 165.7c-3.1-4.5-3.7-10.2-1.6-15.2s6.6-8.6 11.9-9.6L121 121 140.9 13.1c1-5.3 4.6-9.8 9.6-11.9s10.7-1.5 15.2 1.6L256 65.1 346.3 2.8c4.5-3.1 10.2-3.7 15.2-1.6zM160 256a96 96 0 1 1 192 0 96 96 0 1 1 -192 0zm224 0a128 128 0 1 0 -256 0 128 128 0 1 0 256 0z"/>
    </symbol>

    <!-- animation SVG -->
    <symbol id="animation" viewBox="0 0 448 512">
       <path fill="currentcolor" d="M320 48a48 48 0 1 0 -96 0 48 48 0 1 0 96 0zM125.7 175.5c9.9-9.9 23.4-15.5 37.5-15.5c1.9 0 3.8 .1 5.6 .3L137.6 254c-9.3 28 1.7 58.8 26.8 74.5l86.2 53.9-25.4 88.8c-4.9 17 5 34.7 22 39.6s34.7-5 39.6-22l28.7-100.4c5.9-20.6-2.6-42.6-20.7-53.9L238 299l30.9-82.4 5.1 12.3C289 264.7 323.9 288 362.7 288H384c17.7 0 32-14.3 32-32s-14.3-32-32-32H362.7c-12.9 0-24.6-7.8-29.5-19.7l-6.3-15c-14.6-35.1-44.1-61.9-80.5-73.1l-48.7-15c-11.1-3.4-22.7-5.2-34.4-5.2c-31 0-60.8 12.3-82.7 34.3L57.4 153.4c-12.5 12.5-12.5 32.8 0 45.3s32.8 12.5 45.3 0l23.1-23.1zM91.2 352H32c-17.7 0-32 14.3-32 32s14.3 32 32 32h69.6c19 0 36.2-11.2 43.9-28.5L157 361.6l-9.5-6c-17.5-10.9-30.5-26.8-37.9-44.9L91.2 352z"/>
    </symbol>

    <!-- location SVG -->
    <symbol id="location"  viewBox="0 0 384 512">
       <path fill="currentcolor" d="M215.7 499.2C267 435 384 279.4 384 192C384 86 298 0 192 0S0 86 0 192c0 87.4 117 243 168.3 307.2c12.3 15.3 35.1 15.3 47.4 0zM192 128a64 64 0 1 1 0 128 64 64 0 1 1 0-128z"/>
    </symbol>

    <!-- world SVG -->
    <symbol id="world" viewBox="0 0 512 512">
       <path fill="currentcolor" d="M57.7 193l9.4 16.4c8.3 14.5 21.9 25.2 38 29.8L163 255.7c17.2 4.9 29 20.6 29 38.5v39.9c0 11 6.2 21 16 25.9s16 14.9 16 25.9v39c0 15.6 14.9 26.9 29.9 22.6c16.1-4.6 28.6-17.5 32.7-33.8l2.8-11.2c4.2-16.9 15.2-31.4 30.3-40l8.1-4.6c15-8.5 24.2-24.5 24.2-41.7v-8.3c0-12.7-5.1-24.9-14.1-33.9l-3.9-3.9c-9-9-21.2-14.1-33.9-14.1H257c-11.1 0-22.1-2.9-31.8-8.4l-34.5-19.7c-4.3-2.5-7.6-6.5-9.2-11.2c-3.2-9.6 1.1-20 10.2-24.5l5.9-3c6.6-3.3 14.3-3.9 21.3-1.5l23.2 7.7c8.2 2.7 17.2-.4 21.9-7.5c4.7-7 4.2-16.3-1.2-22.8l-13.6-16.3c-10-12-9.9-29.5 .3-41.3l15.7-18.3c8.8-10.3 10.2-25 3.5-36.7l-2.4-4.2c-3.5-.2-6.9-.3-10.4-.3C163.1 48 84.4 108.9 57.7 193zM464 256c0-36.8-9.6-71.4-26.4-101.5L412 164.8c-15.7 6.3-23.8 23.8-18.5 39.8l16.9 50.7c3.5 10.4 12 18.3 22.6 20.9l29.1 7.3c1.2-9 1.8-18.2 1.8-27.5zM0 256a256 256 0 1 1 512 0A256 256 0 1 1 0 256z"/>
    </symbol>

    <!-- movies SVG -->
    <symbol id="movies"  viewBox="0 0 512 512">
       <path fill="currentcolor"  d="M0 96C0 60.7 28.7 32 64 32H448c35.3 0 64 28.7 64 64V416c0 35.3-28.7 64-64 64H64c-35.3 0-64-28.7-64-64V96zM48 368v32c0 8.8 7.2 16 16 16H96c8.8 0 16-7.2 16-16V368c0-8.8-7.2-16-16-16H64c-8.8 0-16 7.2-16 16zm368-16c-8.8 0-16 7.2-16 16v32c0 8.8 7.2 16 16 16h32c8.8 0 16-7.2 16-16V368c0-8.8-7.2-16-16-16H416zM48 240v32c0 8.8 7.2 16 16 16H96c8.8 0 16-7.2 16-16V240c0-8.8-7.2-16-16-16H64c-8.8 0-16 7.2-16 16zm368-16c-8.8 0-16 7.2-16 16v32c0 8.8 7.2 16 16 16h32c8.8 0 16-7.2 16-16V240c0-8.8-7.2-16-16-16H416zM48 112v32c0 8.8 7.2 16 16 16H96c8.8 0 16-7.2 16-16V112c0-8.8-7.2-16-16-16H64c-8.8 0-16 7.2-16 16zM416 96c-8.8 0-16 7.2-16 16v32c0 8.8 7.2 16 16 16h32c8.8 0 16-7.2 16-16V112c0-8.8-7.2-16-16-16H416zM160 128v64c0 17.7 14.3 32 32 32H320c17.7 0 32-14.3 32-32V128c0-17.7-14.3-32-32-32H192c-17.7 0-32 14.3-32 32zm32 160c-17.7 0-32 14.3-32 32v64c0 17.7 14.3 32 32 32H320c17.7 0 32-14.3 32-32V320c0-17.7-14.3-32-32-32H192z"/>
    </symbol>

    <!-- blog SVG -->
    <symbol id="blog"  viewBox="0 0 512 512">
       <path fill="currentcolor" d="M192 32c0 17.7 14.3 32 32 32c123.7 0 224 100.3 224 224c0 17.7 14.3 32 32 32s32-14.3 32-32C512 128.9 383.1 0 224 0c-17.7 0-32 14.3-32 32zm0 96c0 17.7 14.3 32 32 32c70.7 0 128 57.3 128 128c0 17.7 14.3 32 32 32s32-14.3 32-32c0-106-86-192-192-192c-17.7 0-32 14.3-32 32zM96 144c0-26.5-21.5-48-48-48S0 117.5 0 144V368c0 79.5 64.5 144 144 144s144-64.5 144-144s-64.5-144-144-144H128v96h16c26.5 0 48 21.5 48 48s-21.5 48-48 48s-48-21.5-48-48V144z"/>
    </symbol>

    <!-- diamond SVG -->
    <symbol id="diamond"  viewBox="0 0 512 512">
       <path fill="currentcolor"  d="M116.7 33.8c4.5-6.1 11.7-9.8 19.3-9.8H376c7.6 0 14.8 3.6 19.3 9.8l112 152c6.8 9.2 6.1 21.9-1.5 30.4l-232 256c-4.5 5-11 7.9-17.8 7.9s-13.2-2.9-17.8-7.9l-232-256c-7.7-8.5-8.3-21.2-1.5-30.4l112-152zm38.5 39.8c-3.3 2.5-4.2 7-2.1 10.5l57.4 95.6L63.3 192c-4.1 .3-7.3 3.8-7.3 8s3.2 7.6 7.3 8l192 16c.4 0 .9 0 1.3 0l192-16c4.1-.3 7.3-3.8 7.3-8s-3.2-7.6-7.3-8L301.5 179.8l57.4-95.6c2.1-3.5 1.2-8.1-2.1-10.5s-7.9-2-10.7 1L256 172.2 165.9 74.6c-2.8-3-7.4-3.4-10.7-1z"/>
    </symbol>

    <symbol id="pop" viewBox="0 0 32 32" >
        <g>
            <path fill="currentcolor" d="M26,16H6c-1.7,0-3-1.3-3-3s1.3-3,3-3h20c1.7,0,3,1.3,3,3S27.7,16,26,16z"/>
        </g>
        <path fill="currentcolor" d="M26.7,14.3C26.6,14.1,26.3,14,26,14H6c-0.3,0-0.6,0.1-0.7,0.3C5.1,14.6,5,14.8,5,15.1l2,16C7.1,31.6,7.5,32,8,32h5
            c-0.5,0-1-0.4-1-0.9l-1-14c0-0.6,0.4-1,0.9-1.1c0.6,0,1,0.4,1.1,0.9l1,14c0,0.6-0.4,1-0.9,1.1c0,0,0,0-0.1,0h6c0,0,0,0-0.1,0
            c-0.6,0-1-0.5-0.9-1.1l1-14c0-0.6,0.5-1,1.1-0.9c0.6,0,1,0.5,0.9,1.1l-1,14c0,0.5-0.5,0.9-1,0.9h5c0.5,0,0.9-0.4,1-0.9l2-16
            C27,14.8,26.9,14.6,26.7,14.3z"/>
        <g>
            <path fill="currentcolor"  d="M25.8,12L25.8,12L6.2,12c-0.4,0-0.8-0.3-0.9-0.7C5.1,10.9,5,10.5,5,10c0-1.5,0.8-2.8,2-3.5C7,6.4,7,6.2,7,6
                c0-2.2,1.8-4,4-4c0.5,0,1,0.1,1.4,0.3C13.1,0.9,14.4,0,16,0s2.9,0.9,3.6,2.3C20,2.1,20.5,2,21,2c2.2,0,4,1.8,4,4c0,0.2,0,0.4,0,0.5
                c1.2,0.7,2,2,2,3.5c0,0.5-0.1,0.9-0.2,1.3C26.6,11.7,26.3,12,25.8,12z M7,10l18,0c0,0,0,0,0,0c0-0.9-0.6-1.7-1.5-1.9
                C23.2,8,23,7.8,22.9,7.6c-0.1-0.3-0.1-0.6,0-0.8C23,6.5,23,6.2,23,6c0-1.1-0.9-2-2-2c-0.5,0-1,0.2-1.3,0.5c-0.3,0.3-0.7,0.3-1,0.2
                C18.3,4.6,18,4.2,18,3.9C17.9,2.8,17,2,16,2s-1.9,0.8-2,1.9c0,0.4-0.3,0.7-0.6,0.9c-0.4,0.1-0.8,0.1-1-0.2C12,4.2,11.5,4,11,4
                C9.9,4,9,4.9,9,6c0,0.2,0,0.5,0.1,0.7c0.1,0.3,0.1,0.6,0,0.8C9,7.8,8.8,8,8.5,8.1C7.6,8.3,7,9.1,7,10L7,10z"/>
        </g>
    </symbol>
</svg>
