<svg xmlns="http://www.w3.org/2000/svg" xmlns:xlink="http://www.w3.org/1999/xlink" viewBox="0 0 24 30" version="1.1" x="0px" y="0px"><title>i24_photoinfo_focal_length</title><desc>Created with Sketch.</desc><g stroke="none" stroke-width="1" fill="none" fill-rule="evenodd" transform="translate(-299.000000, -1197.000000)"><g transform="translate(299.000000, 1197.000000)" fill="#000000" fill-rule="nonzero"><path d="M18.1552004,20.2462868 C19.5217198,17.7408627 20.25,14.9245812 20.25,12 C20.25,9.07534045 19.5216354,6.2591828 18.1555791,3.75438738 L12.5145455,6.81963064 C13.4032201,7.86113587 14,9.79118252 14,12 C14,14.2092428 13.4029903,16.1396073 12.5140322,17.1809708 L18.1552029,20.2462882 Z M19.4735698,3.03821328 C20.9581395,5.76111186 21.75,8.82317485 21.75,12 C21.75,15.1766913 20.9582483,18.2388889 19.4731912,20.9624609 L20.3599549,21.4443133 C20.7470041,21.6677763 20.8815623,22.1593249 20.6570266,22.548232 C20.4340456,22.9344465 19.9384295,23.0657539 19.5524692,22.8429196 L10.5514663,17.9333901 C10.3166743,17.8629915 10.0907836,17.7381752 9.87710628,17.5655655 L2,13.269057 C1.57939364,13.003338 1.30004883,12.5342912 1.30004883,12 C1.30004883,11.4657088 1.57939364,10.996662 2,10.730943 L9.87559562,6.4356532 C10.0902536,6.26198252 10.3172411,6.13655598 10.5532074,6.06608885 L19.5524692,1.15796012 C19.9395184,0.934497151 20.432491,1.06374069 20.6570266,1.45264777 C20.8800077,1.83886224 20.7459152,2.33373214 20.3599549,2.55656642 L19.4735698,3.03821328 Z M8.38319348,14.9363425 C8.13917692,14.0683578 8,13.0666854 8,12 C8,10.9337404 8.13906583,9.93244194 8.38290131,9.06469699 L3.36256598,11.7926632 L3.36260695,12.2082402 L8.38319348,14.9363425 Z M10.8060379,16.2528754 L11.039253,16.3796006 C11.0606992,16.3656962 11.0917076,16.3430412 11.1343881,16.3069366 C11.311675,16.1569645 11.5078108,15.891951 11.6902368,15.5270989 C12.1318761,14.6438204 12.4,13.3759882 12.4,12 C12.4,10.6240118 12.1318761,9.35617955 11.6902368,8.47290107 C11.5078108,8.108049 11.311675,7.84303545 11.1343881,7.69306343 C11.0921947,7.65737083 11.0614085,7.63482268 11.039991,7.62087889 L10.8039743,7.74912641 C10.643556,7.90508033 10.4712856,8.14985615 10.3097632,8.47290107 C9.86812392,9.35617955 9.6,10.6240118 9.6,12 C9.6,13.3759882 9.86812392,14.6438204 10.3097632,15.5270989 C10.4719784,15.8515294 10.645034,16.097018 10.8060379,16.2528754 Z"/></g></g><text x="0" y="39" fill="#000000" font-size="5px" font-weight="bold" font-family="'Helvetica Neue', Helvetica, Arial-Unicode, Arial, Sans-serif">Created by Denis Klyuchnikov</text><text x="0" y="44" fill="#000000" font-size="5px" font-weight="bold" font-family="'Helvetica Neue', Helvetica, Arial-Unicode, Arial, Sans-serif">from the Noun Project</text></svg>